<?xml version="1.0" encoding="UTF-8"?>
<svg width="32" height="32" viewBox="0 0 32 32" fill="none" xmlns="http://www.w3.org/2000/svg">
  <!-- Background -->
  <rect width="32" height="32" rx="6" fill="#0E1C36"/>
  
  <!-- Dynamic "S" for Sportova -->
  <path d="M8 12C8 8.68629 10.6863 6 14 6H18C21.3137 6 24 8.68629 24 12C24 14.2091 22.2091 16 20 16H12C9.79086 16 8 17.7909 8 20C8 23.3137 10.6863 26 14 26H18C21.3137 26 24 23.3137 24 20" 
        stroke="#E63946" 
        stroke-width="3" 
        stroke-linecap="round" 
        fill="none"/>
  
  <!-- Motion lines for speed/dynamics -->
  <path d="M26 8L29 8" stroke="#E63946" stroke-width="2" stroke-linecap="round"/>
  <path d="M26 11L28 11" stroke="#E63946" stroke-width="2" stroke-linecap="round"/>
  <path d="M26 21L28 21" stroke="#E63946" stroke-width="2" stroke-linecap="round"/>
  <path d="M26 24L29 24" stroke="#E63946" stroke-width="2" stroke-linecap="round"/>
  
  <!-- Athletic accent dot -->
  <circle cx="16" cy="16" r="2" fill="#E63946"/>
</svg>
